<mxfile host="app.diagrams.net" modified="2023-05-07T23:39:20.828Z" agent="Mozilla/5.0 (Windows NT 10.0; Win64; x64) AppleWebKit/537.36 (KHTML, like Gecko) Chrome/112.0.0.0 Safari/537.36" etag="6a3YNlVLdQDOHaq-BwTY" version="21.2.9" type="device">
  <diagram name="Page-1" id="0aiQ6ex3RMSGMbCF1up-">
    <mxGraphModel dx="2250" dy="1832" grid="1" gridSize="10" guides="1" tooltips="1" connect="1" arrows="1" fold="1" page="1" pageScale="1" pageWidth="850" pageHeight="1100" math="0" shadow="0">
      <root>
        <mxCell id="0" />
        <mxCell id="1" parent="0" />
        <mxCell id="RaWvP45I63PbRP-h_8LK-1" value="Χειριστής" style="shape=umlActor;verticalLabelPosition=bottom;verticalAlign=top;html=1;" parent="1" vertex="1">
          <mxGeometry x="60" y="180" width="30" height="60" as="geometry" />
        </mxCell>
        <mxCell id="RaWvP45I63PbRP-h_8LK-2" value="Απλός χρήστης" style="shape=umlActor;verticalLabelPosition=bottom;verticalAlign=top;html=1;" parent="1" vertex="1">
          <mxGeometry y="310" width="30" height="60" as="geometry" />
        </mxCell>
        <mxCell id="RaWvP45I63PbRP-h_8LK-3" value="Ξεναγός" style="shape=umlActor;verticalLabelPosition=bottom;verticalAlign=top;html=1;" parent="1" vertex="1">
          <mxGeometry x="80" y="310" width="30" height="60" as="geometry" />
        </mxCell>
        <mxCell id="RaWvP45I63PbRP-h_8LK-8" value="" style="endArrow=classic;html=1;rounded=0;exitX=0.5;exitY=0;exitDx=0;exitDy=0;exitPerimeter=0;" parent="1" source="RaWvP45I63PbRP-h_8LK-2" edge="1">
          <mxGeometry width="50" height="50" relative="1" as="geometry">
            <mxPoint x="400" y="310" as="sourcePoint" />
            <mxPoint x="50" y="270" as="targetPoint" />
          </mxGeometry>
        </mxCell>
        <mxCell id="RaWvP45I63PbRP-h_8LK-9" value="" style="endArrow=classic;html=1;rounded=0;exitX=0.5;exitY=0;exitDx=0;exitDy=0;exitPerimeter=0;" parent="1" source="RaWvP45I63PbRP-h_8LK-3" edge="1">
          <mxGeometry width="50" height="50" relative="1" as="geometry">
            <mxPoint x="400" y="310" as="sourcePoint" />
            <mxPoint x="70" y="270" as="targetPoint" />
          </mxGeometry>
        </mxCell>
        <mxCell id="RaWvP45I63PbRP-h_8LK-10" value="Πεδίο επιλογής κριτηρίων αναζήτησης" style="shape=umlBoundary;whiteSpace=wrap;html=1;" parent="1" vertex="1">
          <mxGeometry x="265" y="120" width="105" height="80" as="geometry" />
        </mxCell>
        <mxCell id="RaWvP45I63PbRP-h_8LK-11" value="Λίστα αγγελιών εργασίας" style="shape=umlBoundary;whiteSpace=wrap;html=1;" parent="1" vertex="1">
          <mxGeometry x="230" y="-10" width="100" height="80" as="geometry" />
        </mxCell>
        <mxCell id="RaWvP45I63PbRP-h_8LK-12" value="" style="endArrow=classic;html=1;rounded=0;entryX=-0.024;entryY=0.602;entryDx=0;entryDy=0;entryPerimeter=0;" parent="1" target="RaWvP45I63PbRP-h_8LK-11" edge="1">
          <mxGeometry width="50" height="50" relative="1" as="geometry">
            <mxPoint x="90" y="170" as="sourcePoint" />
            <mxPoint x="450" y="250" as="targetPoint" />
          </mxGeometry>
        </mxCell>
        <mxCell id="RaWvP45I63PbRP-h_8LK-14" value="Εμφάνισε" style="ellipse;shape=umlControl;whiteSpace=wrap;html=1;" parent="1" vertex="1">
          <mxGeometry x="535" y="10" width="60" height="70" as="geometry" />
        </mxCell>
        <mxCell id="RaWvP45I63PbRP-h_8LK-15" value="" style="endArrow=classic;html=1;rounded=0;exitX=0.992;exitY=0.38;exitDx=0;exitDy=0;exitPerimeter=0;entryX=0.04;entryY=0.374;entryDx=0;entryDy=0;entryPerimeter=0;" parent="1" source="RaWvP45I63PbRP-h_8LK-11" target="RaWvP45I63PbRP-h_8LK-14" edge="1">
          <mxGeometry width="50" height="50" relative="1" as="geometry">
            <mxPoint x="400" y="300" as="sourcePoint" />
            <mxPoint x="450" y="250" as="targetPoint" />
          </mxGeometry>
        </mxCell>
        <mxCell id="RaWvP45I63PbRP-h_8LK-17" value="" style="endArrow=classic;html=1;rounded=0;entryX=-0.024;entryY=0.534;entryDx=0;entryDy=0;entryPerimeter=0;" parent="1" target="RaWvP45I63PbRP-h_8LK-10" edge="1">
          <mxGeometry width="50" height="50" relative="1" as="geometry">
            <mxPoint x="100" y="180" as="sourcePoint" />
            <mxPoint x="450" y="250" as="targetPoint" />
          </mxGeometry>
        </mxCell>
        <mxCell id="RaWvP45I63PbRP-h_8LK-18" value="Επιλέγει κριτήρια αναζήτησης(τίτλος ή ετικέτες/tags)" style="text;html=1;strokeColor=none;fillColor=none;align=center;verticalAlign=middle;whiteSpace=wrap;rounded=0;rotation=-10;" parent="1" vertex="1">
          <mxGeometry x="170" y="120" width="70" height="40" as="geometry" />
        </mxCell>
        <mxCell id="RaWvP45I63PbRP-h_8LK-25" value="Επιλέγει αγγελία" style="text;html=1;strokeColor=none;fillColor=none;align=center;verticalAlign=middle;whiteSpace=wrap;rounded=0;rotation=-40;" parent="1" vertex="1">
          <mxGeometry x="130" y="55" width="60" height="30" as="geometry" />
        </mxCell>
        <mxCell id="RaWvP45I63PbRP-h_8LK-28" value="Οθόνη πληροφοριών αγγελίας" style="shape=umlBoundary;whiteSpace=wrap;html=1;" parent="1" vertex="1">
          <mxGeometry x="360" y="220" width="100" height="70" as="geometry" />
        </mxCell>
        <mxCell id="RaWvP45I63PbRP-h_8LK-29" value="" style="endArrow=classic;html=1;rounded=0;entryX=0.016;entryY=0.529;entryDx=0;entryDy=0;entryPerimeter=0;" parent="1" target="RaWvP45I63PbRP-h_8LK-28" edge="1">
          <mxGeometry width="50" height="50" relative="1" as="geometry">
            <mxPoint x="100" y="200" as="sourcePoint" />
            <mxPoint x="350" y="335" as="targetPoint" />
          </mxGeometry>
        </mxCell>
        <mxCell id="RaWvP45I63PbRP-h_8LK-33" value="Επιλέγει να κάνει αίτηση" style="text;html=1;strokeColor=none;fillColor=none;align=center;verticalAlign=middle;whiteSpace=wrap;rounded=0;rotation=15;" parent="1" vertex="1">
          <mxGeometry x="300" y="212.5" width="60" height="30" as="geometry" />
        </mxCell>
        <mxCell id="RaWvP45I63PbRP-h_8LK-34" value="Εμφάνισε" style="ellipse;shape=umlControl;whiteSpace=wrap;html=1;" parent="1" vertex="1">
          <mxGeometry x="540" y="220" width="60" height="70" as="geometry" />
        </mxCell>
        <mxCell id="RaWvP45I63PbRP-h_8LK-35" value="Φόρμα αίτησης εργασίας&amp;nbsp;" style="shape=umlBoundary;whiteSpace=wrap;html=1;" parent="1" vertex="1">
          <mxGeometry x="350" y="320" width="100" height="70" as="geometry" />
        </mxCell>
        <mxCell id="RaWvP45I63PbRP-h_8LK-36" value="" style="endArrow=classic;html=1;rounded=0;exitX=0.993;exitY=0.392;exitDx=0;exitDy=0;exitPerimeter=0;entryX=-0.024;entryY=0.402;entryDx=0;entryDy=0;entryPerimeter=0;" parent="1" source="RaWvP45I63PbRP-h_8LK-28" target="RaWvP45I63PbRP-h_8LK-34" edge="1">
          <mxGeometry width="50" height="50" relative="1" as="geometry">
            <mxPoint x="400" y="240" as="sourcePoint" />
            <mxPoint x="450" y="190" as="targetPoint" />
          </mxGeometry>
        </mxCell>
        <mxCell id="RaWvP45I63PbRP-h_8LK-37" value="" style="endArrow=classic;html=1;rounded=0;exitX=-0.007;exitY=0.649;exitDx=0;exitDy=0;exitPerimeter=0;entryX=0.876;entryY=0.111;entryDx=0;entryDy=0;entryPerimeter=0;" parent="1" source="RaWvP45I63PbRP-h_8LK-34" target="RaWvP45I63PbRP-h_8LK-35" edge="1">
          <mxGeometry width="50" height="50" relative="1" as="geometry">
            <mxPoint x="400" y="240" as="sourcePoint" />
            <mxPoint x="450" y="190" as="targetPoint" />
          </mxGeometry>
        </mxCell>
        <mxCell id="RaWvP45I63PbRP-h_8LK-38" value="" style="endArrow=classic;html=1;rounded=0;entryX=0.208;entryY=0.363;entryDx=0;entryDy=0;entryPerimeter=0;" parent="1" target="RaWvP45I63PbRP-h_8LK-35" edge="1">
          <mxGeometry width="50" height="50" relative="1" as="geometry">
            <mxPoint x="100" y="210" as="sourcePoint" />
            <mxPoint x="450" y="190" as="targetPoint" />
            <Array as="points" />
          </mxGeometry>
        </mxCell>
        <mxCell id="RaWvP45I63PbRP-h_8LK-39" value="Συντάσσει αίτηση και επιβεβαιώνει" style="text;html=1;strokeColor=none;fillColor=none;align=center;verticalAlign=middle;whiteSpace=wrap;rounded=0;rotation=30;" parent="1" vertex="1">
          <mxGeometry x="295" y="280" width="60" height="30" as="geometry" />
        </mxCell>
        <mxCell id="RaWvP45I63PbRP-h_8LK-41" value="Επαρκείς πληροφορίες;" style="ellipse;shape=umlControl;whiteSpace=wrap;html=1;" parent="1" vertex="1">
          <mxGeometry x="630" y="450" width="80" height="80" as="geometry" />
        </mxCell>
        <mxCell id="RaWvP45I63PbRP-h_8LK-43" value="" style="endArrow=classic;html=1;rounded=0;exitX=-0.005;exitY=0.617;exitDx=0;exitDy=0;exitPerimeter=0;entryX=0.98;entryY=0.734;entryDx=0;entryDy=0;entryPerimeter=0;" parent="1" source="RaWvP45I63PbRP-h_8LK-41" target="RaWvP45I63PbRP-h_8LK-44" edge="1">
          <mxGeometry width="50" height="50" relative="1" as="geometry">
            <mxPoint x="400" y="370" as="sourcePoint" />
            <mxPoint x="420" y="550" as="targetPoint" />
          </mxGeometry>
        </mxCell>
        <mxCell id="RaWvP45I63PbRP-h_8LK-44" value="Εμφάνισε" style="ellipse;shape=umlControl;whiteSpace=wrap;html=1;" parent="1" vertex="1">
          <mxGeometry x="465" y="450" width="60" height="70" as="geometry" />
        </mxCell>
        <mxCell id="RaWvP45I63PbRP-h_8LK-46" value="Ναί" style="text;html=1;strokeColor=none;fillColor=none;align=center;verticalAlign=middle;whiteSpace=wrap;rounded=0;rotation=0;" parent="1" vertex="1">
          <mxGeometry x="550" y="470" width="60" height="30" as="geometry" />
        </mxCell>
        <mxCell id="RaWvP45I63PbRP-h_8LK-48" value="Οθόνη υποβολής αρχείων" style="shape=umlBoundary;whiteSpace=wrap;html=1;" parent="1" vertex="1">
          <mxGeometry x="270" y="400" width="100" height="70" as="geometry" />
        </mxCell>
        <mxCell id="RaWvP45I63PbRP-h_8LK-49" value="" style="endArrow=classic;html=1;rounded=0;entryX=0.26;entryY=0.151;entryDx=0;entryDy=0;entryPerimeter=0;" parent="1" target="RaWvP45I63PbRP-h_8LK-48" edge="1">
          <mxGeometry width="50" height="50" relative="1" as="geometry">
            <mxPoint x="100" y="220" as="sourcePoint" />
            <mxPoint x="450" y="330" as="targetPoint" />
          </mxGeometry>
        </mxCell>
        <mxCell id="RaWvP45I63PbRP-h_8LK-50" value="Υποβάλλει αρχεία και επιβεβαιώνει" style="text;html=1;strokeColor=none;fillColor=none;align=center;verticalAlign=middle;whiteSpace=wrap;rounded=0;rotation=45;" parent="1" vertex="1">
          <mxGeometry x="250" y="340" width="60" height="30" as="geometry" />
        </mxCell>
        <mxCell id="RaWvP45I63PbRP-h_8LK-51" value="" style="endArrow=classic;html=1;rounded=0;exitX=0;exitY=0.429;exitDx=0;exitDy=0;exitPerimeter=0;entryX=1.002;entryY=0.683;entryDx=0;entryDy=0;entryPerimeter=0;" parent="1" source="RaWvP45I63PbRP-h_8LK-44" target="RaWvP45I63PbRP-h_8LK-48" edge="1">
          <mxGeometry width="50" height="50" relative="1" as="geometry">
            <mxPoint x="400" y="370" as="sourcePoint" />
            <mxPoint x="360" y="450" as="targetPoint" />
          </mxGeometry>
        </mxCell>
        <mxCell id="RaWvP45I63PbRP-h_8LK-52" value="Επιτρεπτό μέγεθος;" style="ellipse;shape=umlControl;whiteSpace=wrap;html=1;" parent="1" vertex="1">
          <mxGeometry x="400" y="640" width="80" height="80" as="geometry" />
        </mxCell>
        <mxCell id="RaWvP45I63PbRP-h_8LK-55" value="Οθόνη επιβεβαίωσης" style="shape=umlBoundary;whiteSpace=wrap;html=1;" parent="1" vertex="1">
          <mxGeometry x="110" y="450" width="100" height="70" as="geometry" />
        </mxCell>
        <mxCell id="RaWvP45I63PbRP-h_8LK-56" value="Εμφάνισε" style="ellipse;shape=umlControl;whiteSpace=wrap;html=1;" parent="1" vertex="1">
          <mxGeometry x="250" y="595" width="60" height="70" as="geometry" />
        </mxCell>
        <mxCell id="RaWvP45I63PbRP-h_8LK-57" value="" style="endArrow=classic;html=1;rounded=0;exitX=0.015;exitY=0.582;exitDx=0;exitDy=0;exitPerimeter=0;entryX=0.88;entryY=0.851;entryDx=0;entryDy=0;entryPerimeter=0;" parent="1" source="RaWvP45I63PbRP-h_8LK-52" target="RaWvP45I63PbRP-h_8LK-56" edge="1">
          <mxGeometry width="50" height="50" relative="1" as="geometry">
            <mxPoint x="400" y="400" as="sourcePoint" />
            <mxPoint x="450" y="350" as="targetPoint" />
          </mxGeometry>
        </mxCell>
        <mxCell id="RaWvP45I63PbRP-h_8LK-58" value="Ναί" style="text;html=1;strokeColor=none;fillColor=none;align=center;verticalAlign=middle;whiteSpace=wrap;rounded=0;rotation=15;" parent="1" vertex="1">
          <mxGeometry x="315" y="640" width="60" height="30" as="geometry" />
        </mxCell>
        <mxCell id="RaWvP45I63PbRP-h_8LK-59" value="" style="endArrow=classic;html=1;rounded=0;exitX=0.244;exitY=0.206;exitDx=0;exitDy=0;exitPerimeter=0;entryX=0.741;entryY=0.962;entryDx=0;entryDy=0;entryPerimeter=0;" parent="1" source="RaWvP45I63PbRP-h_8LK-56" target="RaWvP45I63PbRP-h_8LK-55" edge="1">
          <mxGeometry width="50" height="50" relative="1" as="geometry">
            <mxPoint x="400" y="400" as="sourcePoint" />
            <mxPoint x="190" y="520" as="targetPoint" />
          </mxGeometry>
        </mxCell>
        <mxCell id="RaWvP45I63PbRP-h_8LK-60" value="" style="endArrow=classic;html=1;rounded=0;entryX=0.432;entryY=-0.003;entryDx=0;entryDy=0;entryPerimeter=0;" parent="1" target="RaWvP45I63PbRP-h_8LK-55" edge="1">
          <mxGeometry width="50" height="50" relative="1" as="geometry">
            <mxPoint x="100" y="230" as="sourcePoint" />
            <mxPoint x="450" y="350" as="targetPoint" />
          </mxGeometry>
        </mxCell>
        <mxCell id="RaWvP45I63PbRP-h_8LK-61" value="Επιβεβαιώνει" style="text;html=1;strokeColor=none;fillColor=none;align=center;verticalAlign=middle;whiteSpace=wrap;rounded=0;rotation=75;" parent="1" vertex="1">
          <mxGeometry x="130" y="375" width="60" height="30" as="geometry" />
        </mxCell>
        <mxCell id="RaWvP45I63PbRP-h_8LK-62" value="Στείλε&amp;nbsp; στον εργοδότη" style="ellipse;shape=umlControl;whiteSpace=wrap;html=1;" parent="1" vertex="1">
          <mxGeometry x="260" y="811.41" width="90" height="80" as="geometry" />
        </mxCell>
        <mxCell id="RaWvP45I63PbRP-h_8LK-65" value="" style="endArrow=classic;html=1;rounded=0;exitX=0.992;exitY=0.552;exitDx=0;exitDy=0;exitPerimeter=0;entryX=0.071;entryY=0.571;entryDx=0;entryDy=0;entryPerimeter=0;" parent="1" source="RaWvP45I63PbRP-h_8LK-62" target="gOk6WFTbTItofhgb5qVD-11" edge="1">
          <mxGeometry width="50" height="50" relative="1" as="geometry">
            <mxPoint x="400" y="540" as="sourcePoint" />
            <mxPoint x="414.20000000000005" y="752.24" as="targetPoint" />
            <Array as="points" />
          </mxGeometry>
        </mxCell>
        <mxCell id="RaWvP45I63PbRP-h_8LK-66" value="" style="endArrow=classic;html=1;rounded=0;entryX=0.034;entryY=0.663;entryDx=0;entryDy=0;entryPerimeter=0;exitX=1.015;exitY=0.438;exitDx=0;exitDy=0;exitPerimeter=0;strokeColor=#FF0000;" parent="1" source="RaWvP45I63PbRP-h_8LK-41" target="RaWvP45I63PbRP-h_8LK-67" edge="1">
          <mxGeometry width="50" height="50" relative="1" as="geometry">
            <mxPoint x="400" y="480" as="sourcePoint" />
            <mxPoint x="450" y="430" as="targetPoint" />
          </mxGeometry>
        </mxCell>
        <mxCell id="RaWvP45I63PbRP-h_8LK-67" value="Εμφάνισε" style="ellipse;shape=umlControl;whiteSpace=wrap;html=1;strokeColor=#FF0000;" parent="1" vertex="1">
          <mxGeometry x="770" y="375" width="70" height="70" as="geometry" />
        </mxCell>
        <mxCell id="RaWvP45I63PbRP-h_8LK-68" value="Όχι" style="text;html=1;strokeColor=none;fillColor=none;align=center;verticalAlign=middle;whiteSpace=wrap;rounded=0;rotation=-35;" parent="1" vertex="1">
          <mxGeometry x="690" y="430" width="60" height="30" as="geometry" />
        </mxCell>
        <mxCell id="RaWvP45I63PbRP-h_8LK-71" value="" style="endArrow=classic;html=1;rounded=0;entryX=0.06;entryY=0.686;entryDx=0;entryDy=0;entryPerimeter=0;exitX=1.003;exitY=0.673;exitDx=0;exitDy=0;exitPerimeter=0;strokeColor=#FF0000;" parent="1" source="RaWvP45I63PbRP-h_8LK-52" target="gOk6WFTbTItofhgb5qVD-5" edge="1">
          <mxGeometry width="50" height="50" relative="1" as="geometry">
            <mxPoint x="400" y="550" as="sourcePoint" />
            <mxPoint x="540.8" y="638.77" as="targetPoint" />
          </mxGeometry>
        </mxCell>
        <mxCell id="RaWvP45I63PbRP-h_8LK-72" value="" style="endArrow=classic;html=1;rounded=0;exitX=0.071;exitY=0.286;exitDx=0;exitDy=0;exitPerimeter=0;entryX=0.826;entryY=0.923;entryDx=0;entryDy=0;entryPerimeter=0;strokeColor=#FF0000;" parent="1" source="ddcMU7OwsZSvxCC1EG75-20" target="RaWvP45I63PbRP-h_8LK-48" edge="1">
          <mxGeometry width="50" height="50" relative="1" as="geometry">
            <mxPoint x="546.8" y="611.3199999999999" as="sourcePoint" />
            <mxPoint x="450" y="500" as="targetPoint" />
          </mxGeometry>
        </mxCell>
        <mxCell id="RaWvP45I63PbRP-h_8LK-81" value="Όχι" style="text;html=1;strokeColor=none;fillColor=none;align=center;verticalAlign=middle;whiteSpace=wrap;rounded=0;rotation=0;" parent="1" vertex="1">
          <mxGeometry x="500" y="665" width="60" height="30" as="geometry" />
        </mxCell>
        <mxCell id="5N08oNArLKaTBNGAYCdm-1" value="Ανανέωσε" style="ellipse;shape=umlControl;whiteSpace=wrap;html=1;" parent="1" vertex="1">
          <mxGeometry x="435" y="55" width="65" height="70" as="geometry" />
        </mxCell>
        <mxCell id="5N08oNArLKaTBNGAYCdm-2" value="" style="endArrow=classic;html=1;rounded=0;entryX=-0.017;entryY=0.706;entryDx=0;entryDy=0;entryPerimeter=0;exitX=0.998;exitY=0.426;exitDx=0;exitDy=0;exitPerimeter=0;" parent="1" source="RaWvP45I63PbRP-h_8LK-10" target="5N08oNArLKaTBNGAYCdm-1" edge="1">
          <mxGeometry width="50" height="50" relative="1" as="geometry">
            <mxPoint x="400" y="310" as="sourcePoint" />
            <mxPoint x="450" y="260" as="targetPoint" />
          </mxGeometry>
        </mxCell>
        <mxCell id="5N08oNArLKaTBNGAYCdm-3" value="" style="endArrow=classic;html=1;rounded=0;entryX=0.968;entryY=0.75;entryDx=0;entryDy=0;entryPerimeter=0;exitX=0.118;exitY=0.294;exitDx=0;exitDy=0;exitPerimeter=0;" parent="1" source="5N08oNArLKaTBNGAYCdm-1" target="RaWvP45I63PbRP-h_8LK-11" edge="1">
          <mxGeometry width="50" height="50" relative="1" as="geometry">
            <mxPoint x="400" y="310" as="sourcePoint" />
            <mxPoint x="450" y="260" as="targetPoint" />
          </mxGeometry>
        </mxCell>
        <mxCell id="5N08oNArLKaTBNGAYCdm-4" value="" style="endArrow=classic;html=1;rounded=0;exitX=0.15;exitY=0.923;exitDx=0;exitDy=0;exitPerimeter=0;entryX=0.713;entryY=-0.01;entryDx=0;entryDy=0;entryPerimeter=0;" parent="1" source="RaWvP45I63PbRP-h_8LK-14" target="RaWvP45I63PbRP-h_8LK-28" edge="1">
          <mxGeometry width="50" height="50" relative="1" as="geometry">
            <mxPoint x="400" y="310" as="sourcePoint" />
            <mxPoint x="450" y="260" as="targetPoint" />
          </mxGeometry>
        </mxCell>
        <mxCell id="gOk6WFTbTItofhgb5qVD-1" value="Μήνυμα έλλειψης" style="shape=umlBoundary;whiteSpace=wrap;html=1;strokeColor=#FF0000;" parent="1" vertex="1">
          <mxGeometry x="670" y="290" width="80" height="60" as="geometry" />
        </mxCell>
        <mxCell id="gOk6WFTbTItofhgb5qVD-2" value="" style="endArrow=classic;html=1;rounded=0;exitX=0.217;exitY=0.206;exitDx=0;exitDy=0;exitPerimeter=0;strokeColor=#FF0000;entryX=0.82;entryY=0.93;entryDx=0;entryDy=0;entryPerimeter=0;" parent="1" source="RaWvP45I63PbRP-h_8LK-67" target="gOk6WFTbTItofhgb5qVD-1" edge="1">
          <mxGeometry width="50" height="50" relative="1" as="geometry">
            <mxPoint x="400" y="310" as="sourcePoint" />
            <mxPoint x="707" y="361" as="targetPoint" />
          </mxGeometry>
        </mxCell>
        <mxCell id="gOk6WFTbTItofhgb5qVD-3" value="" style="endArrow=classic;html=1;rounded=0;exitX=-0.02;exitY=0.6;exitDx=0;exitDy=0;exitPerimeter=0;entryX=1.008;entryY=0.457;entryDx=0;entryDy=0;entryPerimeter=0;strokeColor=#FF0000;" parent="1" source="ddcMU7OwsZSvxCC1EG75-18" target="RaWvP45I63PbRP-h_8LK-35" edge="1">
          <mxGeometry width="50" height="50" relative="1" as="geometry">
            <mxPoint x="400" y="310" as="sourcePoint" />
            <mxPoint x="450" y="260" as="targetPoint" />
          </mxGeometry>
        </mxCell>
        <mxCell id="gOk6WFTbTItofhgb5qVD-5" value="Εμφάνισε" style="ellipse;shape=umlControl;whiteSpace=wrap;html=1;strokeColor=#FF0000;" parent="1" vertex="1">
          <mxGeometry x="600" y="650" width="70" height="70" as="geometry" />
        </mxCell>
        <mxCell id="gOk6WFTbTItofhgb5qVD-7" value="Μήνυμα μη επιτρεπτού μεγέθους&amp;nbsp;" style="shape=umlBoundary;whiteSpace=wrap;html=1;strokeColor=#FF0000;" parent="1" vertex="1">
          <mxGeometry x="480" y="570" width="90" height="70" as="geometry" />
        </mxCell>
        <mxCell id="gOk6WFTbTItofhgb5qVD-8" value="" style="endArrow=classic;html=1;rounded=0;exitX=0.16;exitY=0.266;exitDx=0;exitDy=0;exitPerimeter=0;strokeColor=#FF0000;entryX=0.96;entryY=0.865;entryDx=0;entryDy=0;entryPerimeter=0;" parent="1" source="gOk6WFTbTItofhgb5qVD-5" target="gOk6WFTbTItofhgb5qVD-7" edge="1">
          <mxGeometry width="50" height="50" relative="1" as="geometry">
            <mxPoint x="430" y="620" as="sourcePoint" />
            <mxPoint x="616" y="630" as="targetPoint" />
          </mxGeometry>
        </mxCell>
        <mxCell id="gOk6WFTbTItofhgb5qVD-11" value="Εμφάνισε" style="ellipse;shape=umlControl;whiteSpace=wrap;html=1;strokeColor=#000000;" parent="1" vertex="1">
          <mxGeometry x="480" y="816.41" width="70" height="70" as="geometry" />
        </mxCell>
        <mxCell id="gOk6WFTbTItofhgb5qVD-12" value="Μήνυμα επιτυχίας" style="shape=umlBoundary;whiteSpace=wrap;html=1;" parent="1" vertex="1">
          <mxGeometry x="677.5" y="811.41" width="85" height="60" as="geometry" />
        </mxCell>
        <mxCell id="gOk6WFTbTItofhgb5qVD-13" value="" style="endArrow=classic;html=1;rounded=0;exitX=0.995;exitY=0.676;exitDx=0;exitDy=0;exitPerimeter=0;entryX=0.282;entryY=0.778;entryDx=0;entryDy=0;entryPerimeter=0;" parent="1" source="gOk6WFTbTItofhgb5qVD-11" target="gOk6WFTbTItofhgb5qVD-12" edge="1">
          <mxGeometry width="50" height="50" relative="1" as="geometry">
            <mxPoint x="430" y="720" as="sourcePoint" />
            <mxPoint x="480" y="670" as="targetPoint" />
          </mxGeometry>
        </mxCell>
        <mxCell id="gOk6WFTbTItofhgb5qVD-14" value="Αίτηση" style="ellipse;shape=umlEntity;whiteSpace=wrap;html=1;" parent="1" vertex="1">
          <mxGeometry x="105" y="831.41" width="65" height="60" as="geometry" />
        </mxCell>
        <mxCell id="gOk6WFTbTItofhgb5qVD-16" value="Αγγελία" style="ellipse;shape=umlEntity;whiteSpace=wrap;html=1;" parent="1" vertex="1">
          <mxGeometry x="730" y="-5" width="70" height="65" as="geometry" />
        </mxCell>
        <mxCell id="gOk6WFTbTItofhgb5qVD-17" value="" style="endArrow=classic;html=1;rounded=0;entryX=0;entryY=0;entryDx=0;entryDy=0;" parent="1" source="RaWvP45I63PbRP-h_8LK-14" target="gOk6WFTbTItofhgb5qVD-16" edge="1">
          <mxGeometry width="50" height="50" relative="1" as="geometry">
            <mxPoint x="430" y="250" as="sourcePoint" />
            <mxPoint x="480" y="200" as="targetPoint" />
          </mxGeometry>
        </mxCell>
        <mxCell id="SDLQSJYGYfEHljIRM8tn-2" value="" style="endArrow=classic;html=1;rounded=0;exitX=0.976;exitY=0.686;exitDx=0;exitDy=0;exitPerimeter=0;entryX=0.24;entryY=0.168;entryDx=0;entryDy=0;entryPerimeter=0;" parent="1" source="RaWvP45I63PbRP-h_8LK-35" target="RaWvP45I63PbRP-h_8LK-41" edge="1">
          <mxGeometry width="50" height="50" relative="1" as="geometry">
            <mxPoint x="420" y="350" as="sourcePoint" />
            <mxPoint x="524.1200000000003" y="376.55999999999995" as="targetPoint" />
          </mxGeometry>
        </mxCell>
        <mxCell id="SDLQSJYGYfEHljIRM8tn-8" value="" style="endArrow=classic;html=1;rounded=0;entryX=0.237;entryY=0.17;entryDx=0;entryDy=0;entryPerimeter=0;exitX=0.496;exitY=1.006;exitDx=0;exitDy=0;exitPerimeter=0;" parent="1" source="RaWvP45I63PbRP-h_8LK-48" target="RaWvP45I63PbRP-h_8LK-52" edge="1">
          <mxGeometry width="50" height="50" relative="1" as="geometry">
            <mxPoint x="359.2000000000003" y="619.2400000000002" as="sourcePoint" />
            <mxPoint x="300" y="480" as="targetPoint" />
            <Array as="points" />
          </mxGeometry>
        </mxCell>
        <mxCell id="dUEykmmxU0aXWjsEYPPV-4" value="" style="endArrow=classic;html=1;rounded=0;exitX=0.836;exitY=0.953;exitDx=0;exitDy=0;exitPerimeter=0;entryX=0.076;entryY=0.304;entryDx=0;entryDy=0;entryPerimeter=0;" parent="1" source="ddcMU7OwsZSvxCC1EG75-1" target="RaWvP45I63PbRP-h_8LK-62" edge="1">
          <mxGeometry width="50" height="50" relative="1" as="geometry">
            <mxPoint x="266.7800000000002" y="754.3899999999999" as="sourcePoint" />
            <mxPoint x="340" y="670" as="targetPoint" />
          </mxGeometry>
        </mxCell>
        <mxCell id="9WBOR3YPMFTnZgUxb2BB-1" value="" style="endArrow=classic;html=1;rounded=0;exitX=-0.037;exitY=0.657;exitDx=0;exitDy=0;exitPerimeter=0;entryX=1;entryY=0.5;entryDx=0;entryDy=0;" parent="1" target="gOk6WFTbTItofhgb5qVD-14" edge="1" source="RaWvP45I63PbRP-h_8LK-62">
          <mxGeometry width="50" height="50" relative="1" as="geometry">
            <mxPoint x="310" y="850" as="sourcePoint" />
            <mxPoint x="200" y="870" as="targetPoint" />
          </mxGeometry>
        </mxCell>
        <mxCell id="ddcMU7OwsZSvxCC1EG75-1" value="Καταχώρησε" style="ellipse;shape=umlControl;whiteSpace=wrap;html=1;" vertex="1" parent="1">
          <mxGeometry x="100" y="665" width="70" height="70" as="geometry" />
        </mxCell>
        <mxCell id="ddcMU7OwsZSvxCC1EG75-2" value="" style="endArrow=classic;html=1;rounded=0;exitX=0.389;exitY=0.977;exitDx=0;exitDy=0;exitPerimeter=0;entryX=0.714;entryY=0.13;entryDx=0;entryDy=0;entryPerimeter=0;" edge="1" parent="1" source="RaWvP45I63PbRP-h_8LK-55" target="ddcMU7OwsZSvxCC1EG75-1">
          <mxGeometry width="50" height="50" relative="1" as="geometry">
            <mxPoint x="490" y="620" as="sourcePoint" />
            <mxPoint x="540" y="570" as="targetPoint" />
          </mxGeometry>
        </mxCell>
        <mxCell id="ddcMU7OwsZSvxCC1EG75-3" value="" style="endArrow=classic;html=1;rounded=0;entryX=0.5;entryY=0;entryDx=0;entryDy=0;exitX=0.501;exitY=0.999;exitDx=0;exitDy=0;exitPerimeter=0;" edge="1" parent="1" source="ddcMU7OwsZSvxCC1EG75-1" target="gOk6WFTbTItofhgb5qVD-14">
          <mxGeometry width="50" height="50" relative="1" as="geometry">
            <mxPoint x="120" y="750" as="sourcePoint" />
            <mxPoint x="540" y="570" as="targetPoint" />
          </mxGeometry>
        </mxCell>
        <mxCell id="ddcMU7OwsZSvxCC1EG75-4" value="Αρχεία χειριστή" style="ellipse;shape=umlEntity;whiteSpace=wrap;html=1;" vertex="1" parent="1">
          <mxGeometry x="310" y="735" width="70" height="60" as="geometry" />
        </mxCell>
        <mxCell id="ddcMU7OwsZSvxCC1EG75-5" value="" style="endArrow=classic;html=1;rounded=0;exitX=0.168;exitY=0.907;exitDx=0;exitDy=0;exitPerimeter=0;entryX=1;entryY=0;entryDx=0;entryDy=0;" edge="1" parent="1" source="RaWvP45I63PbRP-h_8LK-52" target="ddcMU7OwsZSvxCC1EG75-4">
          <mxGeometry width="50" height="50" relative="1" as="geometry">
            <mxPoint x="490" y="740" as="sourcePoint" />
            <mxPoint x="540" y="690" as="targetPoint" />
          </mxGeometry>
        </mxCell>
        <mxCell id="ddcMU7OwsZSvxCC1EG75-6" value="" style="endArrow=classic;html=1;rounded=0;exitX=0.989;exitY=0.435;exitDx=0;exitDy=0;exitPerimeter=0;entryX=0;entryY=0;entryDx=0;entryDy=0;" edge="1" parent="1" source="ddcMU7OwsZSvxCC1EG75-1" target="ddcMU7OwsZSvxCC1EG75-4">
          <mxGeometry width="50" height="50" relative="1" as="geometry">
            <mxPoint x="490" y="740" as="sourcePoint" />
            <mxPoint x="540" y="690" as="targetPoint" />
          </mxGeometry>
        </mxCell>
        <mxCell id="ddcMU7OwsZSvxCC1EG75-10" value="Φόρτωσε" style="ellipse;shape=umlControl;whiteSpace=wrap;html=1;" vertex="1" parent="1">
          <mxGeometry x="315" y="-140" width="67.5" height="70" as="geometry" />
        </mxCell>
        <mxCell id="ddcMU7OwsZSvxCC1EG75-11" value="Ετικέτες&lt;br&gt;/Tags" style="ellipse;shape=umlEntity;whiteSpace=wrap;html=1;" vertex="1" parent="1">
          <mxGeometry x="530" y="-137.5" width="70" height="67.5" as="geometry" />
        </mxCell>
        <mxCell id="ddcMU7OwsZSvxCC1EG75-13" value="" style="endArrow=classic;html=1;rounded=0;exitX=0.853;exitY=0.101;exitDx=0;exitDy=0;exitPerimeter=0;entryX=0.064;entryY=0.721;entryDx=0;entryDy=0;entryPerimeter=0;" edge="1" parent="1" source="RaWvP45I63PbRP-h_8LK-11" target="ddcMU7OwsZSvxCC1EG75-10">
          <mxGeometry width="50" height="50" relative="1" as="geometry">
            <mxPoint x="570" y="220" as="sourcePoint" />
            <mxPoint x="620" y="170" as="targetPoint" />
          </mxGeometry>
        </mxCell>
        <mxCell id="ddcMU7OwsZSvxCC1EG75-14" value="" style="endArrow=classic;html=1;rounded=0;exitX=0.997;exitY=0.523;exitDx=0;exitDy=0;exitPerimeter=0;entryX=0;entryY=0.5;entryDx=0;entryDy=0;" edge="1" parent="1" source="ddcMU7OwsZSvxCC1EG75-10" target="ddcMU7OwsZSvxCC1EG75-11">
          <mxGeometry width="50" height="50" relative="1" as="geometry">
            <mxPoint x="570" y="220" as="sourcePoint" />
            <mxPoint x="620" y="170" as="targetPoint" />
          </mxGeometry>
        </mxCell>
        <mxCell id="ddcMU7OwsZSvxCC1EG75-15" value="Εμφάνισε" style="ellipse;shape=umlControl;whiteSpace=wrap;html=1;" vertex="1" parent="1">
          <mxGeometry x="405" y="-75" width="60" height="70" as="geometry" />
        </mxCell>
        <mxCell id="ddcMU7OwsZSvxCC1EG75-16" value="" style="endArrow=classic;html=1;rounded=0;exitX=0.858;exitY=0.906;exitDx=0;exitDy=0;exitPerimeter=0;entryX=0.07;entryY=0.343;entryDx=0;entryDy=0;entryPerimeter=0;" edge="1" parent="1" source="ddcMU7OwsZSvxCC1EG75-10" target="ddcMU7OwsZSvxCC1EG75-15">
          <mxGeometry width="50" height="50" relative="1" as="geometry">
            <mxPoint x="570" y="220" as="sourcePoint" />
            <mxPoint x="620" y="170" as="targetPoint" />
          </mxGeometry>
        </mxCell>
        <mxCell id="ddcMU7OwsZSvxCC1EG75-17" value="" style="endArrow=classic;html=1;rounded=0;" edge="1" parent="1" source="ddcMU7OwsZSvxCC1EG75-15" target="RaWvP45I63PbRP-h_8LK-10">
          <mxGeometry width="50" height="50" relative="1" as="geometry">
            <mxPoint x="570" y="220" as="sourcePoint" />
            <mxPoint x="620" y="170" as="targetPoint" />
          </mxGeometry>
        </mxCell>
        <mxCell id="ddcMU7OwsZSvxCC1EG75-19" value="" style="endArrow=classic;html=1;rounded=0;exitX=-0.02;exitY=0.6;exitDx=0;exitDy=0;exitPerimeter=0;entryX=1.008;entryY=0.457;entryDx=0;entryDy=0;entryPerimeter=0;strokeColor=#FF0000;" edge="1" parent="1" source="gOk6WFTbTItofhgb5qVD-1" target="ddcMU7OwsZSvxCC1EG75-18">
          <mxGeometry width="50" height="50" relative="1" as="geometry">
            <mxPoint x="668" y="326" as="sourcePoint" />
            <mxPoint x="451" y="352" as="targetPoint" />
          </mxGeometry>
        </mxCell>
        <mxCell id="ddcMU7OwsZSvxCC1EG75-18" value="Εμφάνισε" style="ellipse;shape=umlControl;whiteSpace=wrap;html=1;strokeColor=#FF0000;" vertex="1" parent="1">
          <mxGeometry x="535" y="300" width="70" height="70" as="geometry" />
        </mxCell>
        <mxCell id="ddcMU7OwsZSvxCC1EG75-21" value="" style="endArrow=classic;html=1;rounded=0;exitX=0.332;exitY=0.118;exitDx=0;exitDy=0;exitPerimeter=0;entryX=0.889;entryY=0.909;entryDx=0;entryDy=0;entryPerimeter=0;strokeColor=#FF0000;" edge="1" parent="1" source="gOk6WFTbTItofhgb5qVD-7" target="ddcMU7OwsZSvxCC1EG75-20">
          <mxGeometry width="50" height="50" relative="1" as="geometry">
            <mxPoint x="480" y="558" as="sourcePoint" />
            <mxPoint x="353" y="465" as="targetPoint" />
          </mxGeometry>
        </mxCell>
        <mxCell id="ddcMU7OwsZSvxCC1EG75-20" value="Εμφάνισε" style="ellipse;shape=umlControl;whiteSpace=wrap;html=1;strokeColor=#FF0000;" vertex="1" parent="1">
          <mxGeometry x="395" y="490" width="70" height="70" as="geometry" />
        </mxCell>
      </root>
    </mxGraphModel>
  </diagram>
</mxfile>
